HIERARCHY
ROOT Hips
{
  OFFSET 13.6774 106.653 -34.4427
  CHANNELS 6 Xposition Yposition Zposition Zrotation Xrotation Yrotation
  JOINT ToSpine
  {
    OFFSET -2.69724 7.43032 -0.144315
    CHANNELS 3 Zrotation Xrotation Yrotation
    JOINT Spine
    {
      OFFSET -0.0310711 10.7595 1.96963
      CHANNELS 3 Zrotation Xrotation Yrotation
      JOINT Spine1
      {
        OFFSET 19.9056 3.91189 0.764692
        CHANNELS 3 Zrotation Xrotation Yrotation
        JOINT Neck
        {
          OFFSET 25.9749 7.03908 -0.130764
          CHANNELS 3 Zrotation Xrotation Yrotation
          JOINT Head
          {
            OFFSET 9.52751 0.295786 -0.907742
            CHANNELS 3 Zrotation Xrotation Yrotation
            End Site
            {
              OFFSET 16.4037 0.713936 2.7358
            }
          }
        }
        JOINT LeftShoulder
        {
          OFFSET 17.7449 4.33886 11.7777
          CHANNELS 3 Zrotation Xrotation Yrotation
          JOINT LeftArm
          {
            OFFSET 0.911315 1.27913 9.80584
            CHANNELS 3 Zrotation Xrotation Yrotation
            JOINT LeftForeArm
            {
              OFFSET 28.6126 1.18197 -3.53199
              CHANNELS 3 Zrotation Xrotation Yrotation
              JOINT LeftHand
              {
                OFFSET 27.5088 0.0218783 0.327423
                CHANNELS 3 Zrotation Xrotation Yrotation
                End Site
                {
                  OFFSET 18.6038 -0.000155887 0.382096
                }
              }
            }
          }
        }
        JOINT RightShoulder
        {
          OFFSET 17.1009 2.89543 -12.2328
          CHANNELS 3 Zrotation Xrotation Yrotation
          JOINT RightArm
          {
            OFFSET 1.4228 0.178766 -10.211
            CHANNELS 3 Zrotation Xrotation Yrotation
            JOINT RightForeArm
            {
              OFFSET 28.733 1.87905 2.64907
              CHANNELS 3 Zrotation Xrotation Yrotation
              JOINT RightHand
              {
                OFFSET 27.4588 0.290562 -0.101845
                CHANNELS 3 Zrotation Xrotation Yrotation
                End Site
                {
                  OFFSET 17.8396 -0.255518 -0.000602873
                }
              }
            }
          }
        }
      }
    }
  }
  JOINT LeftUpLeg
  {
    OFFSET -5.61296 -2.22332 -10.2353
    CHANNELS 3 Zrotation Xrotation Yrotation
    JOINT LeftLeg
    {
      OFFSET 2.56703 -44.7417 -7.93097
      CHANNELS 3 Zrotation Xrotation Yrotation
      JOINT LeftFoot
      {
        OFFSET 3.16933 -46.5642 -3.96578
        CHANNELS 3 Zrotation Xrotation Yrotation
        JOINT LeftToeBase
        {
          OFFSET 0.346054 -6.02161 12.8035
          CHANNELS 3 Zrotation Xrotation Yrotation
          End Site
          {
            OFFSET 0.134235 -1.35082 5.13018
          }
        }
      }
    }
  }
  JOINT RightUpLeg
  {
    OFFSET -5.7928 -1.72406 10.6446
    CHANNELS 3 Zrotation Xrotation Yrotation
    JOINT RightLeg
    {
      OFFSET -2.57161 -44.7178 -7.85259
      CHANNELS 3 Zrotation Xrotation Yrotation
      JOINT RightFoot
      {
        OFFSET -3.10148 -46.5936 -4.03391
        CHANNELS 3 Zrotation Xrotation Yrotation
        JOINT RightToeBase
        {
          OFFSET -0.0828122 -6.13587 12.8035
          CHANNELS 3 Zrotation Xrotation Yrotation
          End Site
          {
            OFFSET -0.131328 -1.35082 5.13018
          }
        }
      }
    }
  }
}
MOTION
Frames: 19
Frame Time: 0.03333333333333333
0.0000 93.1000 0.0000 -7.8498 -69.0536 -101.4261 -71.0194 -0.1112 87.9554 78.3513 65.1779 -0.3163 -2.6238 14.0574 8.6260 -150.8991 21.8852 176.0453 -154.3380 60.0450 172.3899 0.2997 -16.1882 -23.2881 -85.8605 51.9774 -129.6253 -11.6977 5.2838 -114.0826 -0.7855 -0.2298 -0.3150 -1.0091 3.0025 26.1302 -76.5639 -38.9445 119.6563 3.9891 3.4674 125.9923 0.2572 -0.3595 -0.0108 -65.0521 7.3056 96.4612 -1.0491 29.2413 -7.3015 -2.6179 -6.6041 -0.9384 6.3774 -17.2774 13.6546 -27.4762 -0.5105 94.2516 2.1720 46.0986 2.4742 -6.2260 -11.9832 1.3746 0.0582 -3.1286 -4.5691 
0.0000 93.1000 0.0000 7.1766 -68.7781 -87.3672 -71.0257 -0.1012 87.9509 81.1852 65.1797 -2.3433 -2.9521 13.8460 7.4301 -149.0986 22.8813 174.6790 -153.4344 61.0582 173.5573 0.2409 -16.9026 -23.6711 -84.5260 49.5054 -130.7604 -11.2486 3.9885 -112.6204 -0.7550 -0.1494 -0.0960 -0.9187 4.0830 26.0131 -81.4402 -39.4134 120.1267 3.4364 2.9420 125.9396 0.1937 -0.2762 -0.1882 -64.1257 8.9208 98.4737 -1.1824 29.0684 -0.8613 -2.5494 -6.4435 -1.0044 4.6878 -13.6712 9.9797 -26.6605 -3.9624 90.4778 2.0462 46.3653 1.9231 -5.4952 -12.9006 1.4859 -0.2522 -2.0315 -4.5564 
0.0000 93.1000 0.0000 18.9212 -68.0726 -74.2145 -71.0419 -0.0519 87.9669 84.1622 65.7201 -4.5862 -2.9988 13.8583 6.7024 -147.6628 24.2894 177.0256 -157.6319 62.8883 177.0488 0.0180 -16.9123 -23.7302 -84.1381 46.7928 -130.0991 -8.7769 2.9324 -111.6918 0.1907 0.0917 -0.3130 -0.7802 4.5231 24.4320 -87.1820 -40.5032 119.0123 3.4751 3.3234 125.1553 -0.0793 0.0458 -0.3627 -62.4053 10.7732 98.2278 -1.4024 30.9409 2.1132 -2.5971 -4.1713 -0.9519 3.1472 -10.6176 6.7051 -27.6803 -5.9443 88.1320 2.0973 45.0232 1.0440 -4.6402 -13.3580 1.3906 0.2647 -1.7259 -5.4099 
0.0000 93.1000 0.0000 29.0258 -66.0757 -61.5663 -71.0650 -0.0225 87.9782 85.3743 66.1639 -4.1180 -1.9462 13.1875 6.1584 -145.1928 25.2097 170.9888 -152.6681 64.0074 171.7719 -0.1634 -17.3032 -22.4660 -81.8560 44.7841 -133.1710 -5.9594 0.9414 -108.2500 0.2493 0.2679 -0.5319 -0.9291 4.6432 26.0273 -92.0065 -39.4042 117.9543 2.6704 2.4864 125.3179 0.0398 0.2881 -0.5100 -61.7204 12.6563 97.8002 -2.0123 32.2994 1.3736 -1.6098 0.1333 -0.8563 2.9473 -10.0338 5.6733 -29.0237 -8.2798 86.4421 2.2150 44.6400 0.9364 -3.7429 -13.8498 1.2620 0.8151 -0.8819 -9.6811 
0.0000 93.1000 0.0000 37.4713 -63.8751 -52.2388 -71.0631 -0.0333 87.9880 84.2656 66.5024 -2.5882 -1.5242 13.5988 5.7872 -140.4250 25.7076 170.3186 -150.8900 64.4147 174.5285 -0.0172 -16.6377 -22.0786 -78.5529 44.2888 -135.3177 -2.1706 0.0519 -107.2991 0.0136 0.2229 -0.4269 -0.9708 4.7681 26.3287 -96.7356 -38.3070 116.9950 3.7259 2.9969 123.8171 -0.1281 0.2839 -0.1974 -60.6389 13.9536 96.3188 -2.4046 33.1774 1.1297 -1.4461 2.6610 -0.4451 1.8465 -8.3982 4.8813 -29.8944 -10.2426 85.1183 2.3792 42.5068 0.2225 -4.0094 -15.0115 1.2312 0.9176 -0.1360 -10.2589 
0.0000 93.1000 0.0000 41.8351 -61.6279 -45.1789 -71.0526 0.0251 87.9981 84.1796 66.9725 -1.4495 -1.0869 14.8888 3.8923 -137.8555 26.6966 168.7206 -152.4227 65.1247 174.7232 -0.1903 -15.9959 -22.4396 -76.9626 43.2460 -137.1949 -0.2819 -0.2431 -107.0516 0.2853 0.4913 -0.7366 -1.0373 5.1594 25.0739 -100.1098 -38.6025 115.9703 7.5864 3.9663 124.6789 -0.2274 0.6350 -0.1897 -60.6694 14.9325 95.8606 -1.7769 32.8687 -0.7806 -2.3699 3.4583 -0.5362 2.8758 -9.7740 2.2547 -30.9307 -12.2217 83.5382 1.2430 41.3230 0.1853 -3.3506 -15.5994 1.4335 0.8086 -0.4951 -9.4372 
0.0000 93.1000 0.0000 47.0397 -59.6402 -40.6407 -71.0502 0.0772 87.8966 84.0348 67.1410 -0.0916 -0.3898 14.8827 3.9174 -139.6469 27.2869 172.5442 -161.4487 66.1223 -174.8150 0.0013 -14.5544 -22.6950 -74.8440 42.1285 -137.6722 -0.1958 0.6817 -107.0159 0.1667 0.5350 -0.3508 -1.0571 5.7882 23.8556 -102.6422 -39.5133 116.0300 8.8763 6.5904 122.0570 -0.2244 0.6595 -0.4604 -59.8888 14.1417 94.5674 -1.8828 31.9652 -1.0371 -5.3420 4.4266 -0.0188 4.2473 -11.4172 1.2798 -32.1537 -12.6163 82.6834 1.4076 39.8321 -0.4014 -2.0236 -15.0433 1.1563 1.2947 -1.9477 -12.2162 
0.0000 93.1000 0.0000 50.0766 -57.3786 -37.7029 -71.0358 0.0785 87.9958 85.5391 67.7831 0.7881 -0.1733 15.8175 3.2899 -135.5250 27.5817 168.8465 -155.0122 66.9843 180.6665 -0.3401 -14.9905 -21.5776 -71.3227 41.8930 -140.1796 0.7064 -0.8176 -105.4780 0.6251 0.9036 -0.0869 -1.0868 5.3378 25.7442 -108.5726 -35.7821 113.2774 8.5475 5.2925 122.9892 -0.4330 0.9380 -0.3721 -59.5521 14.4579 93.9990 -1.1409 29.7335 -1.2702 -4.5462 3.1194 -0.5992 6.0363 -14.0972 0.6592 -34.1699 -15.4672 78.7947 0.3670 37.4154 -0.1113 -1.7181 -12.9005 1.2683 1.1549 -2.0131 -10.2597 
0.0000 93.1000 0.0000 51.8364 -55.5467 -34.4180 -71.0409 0.0545 87.9107 83.0975 68.8858 1.8765 -0.6250 16.4890 4.0994 -134.7804 27.1458 165.8571 -157.3378 67.3148 -178.0847 -0.0118 -15.0779 -22.2881 -71.6726 41.1365 -139.9318 1.7858 -1.1284 -105.6973 -0.2597 0.4034 0.1129 -1.2798 5.5696 25.6193 -111.4879 -34.8551 110.8634 7.9508 4.5895 122.0533 -0.1144 0.5174 -0.4729 -58.7095 14.3975 95.1162 -0.3366 29.5978 -2.7923 -5.6874 0.2318 -0.1031 5.6602 -13.6448 0.8328 -35.0964 -17.1119 79.5948 0.7458 34.9089 -1.3791 -0.2310 -11.0278 0.7442 0.7718 0.0175 -7.2096 
0.0000 93.1000 0.0000 53.2957 -53.2590 -31.5621 -71.0379 0.0424 88.0159 85.9298 69.2438 -0.5441 -0.7764 17.0398 4.3255 -132.6300 27.5907 165.2662 -155.2903 68.4480 178.5693 -0.3563 -15.5111 -22.1443 -69.6585 39.9157 -141.2372 1.2945 -0.5920 -105.4163 0.0324 0.6679 0.0743 -1.1807 4.6803 26.8115 -113.8873 -34.1014 108.6785 6.4708 5.1908 123.2628 -0.3202 0.6777 -0.3391 -57.7518 13.8797 95.5187 -0.9566 29.7986 -4.2557 -6.6746 -2.5386 -0.3274 5.5317 -14.2967 5.4773 -36.2928 -18.1483 78.3646 0.9920 32.9568 -2.7932 -0.3779 -9.0342 0.8927 -0.1406 -0.0717 -7.6145 
0.0000 93.1000 0.0000 55.1753 -52.9692 -29.6171 -71.0494 0.0593 87.9218 85.2375 69.5779 -0.9041 -0.9106 18.0147 4.8061 -134.1438 28.1215 165.9642 -159.0488 68.6180 -177.2605 -0.1729 -14.7225 -22.4448 -69.3655 41.0060 -140.2648 0.8738 -0.7606 -105.6960 -0.2766 0.3948 -0.0707 -1.3472 5.2973 26.7077 -117.4347 -33.4380 105.7866 7.0267 5.3227 122.7501 0.0032 0.5025 -0.2699 -56.5880 13.0807 97.1848 -1.6097 30.2200 -6.6584 -5.7808 -3.8096 -0.2946 6.2565 -15.2501 10.5426 -36.8702 -19.6848 79.3061 1.7826 31.0255 -4.5645 0.3663 -6.9744 0.3643 -0.4770 2.0364 -5.1423 
0.0000 93.1000 0.0000 57.4071 -51.9408 -27.7012 -71.0796 0.1439 87.9511 86.0627 70.3351 -1.6711 0.2569 18.3085 5.0842 -132.8901 27.7133 164.1005 -156.9836 69.5262 -178.1368 -0.6078 -14.8510 -22.0430 -68.4564 40.7083 -141.1799 1.3215 -0.9690 -104.5332 0.0433 0.7534 -0.5837 -1.2223 4.8207 27.6675 -119.8426 -31.4918 104.2399 8.0945 5.7670 123.5602 -0.4407 0.9700 -0.6758 -55.6132 12.2163 98.0203 -1.7903 32.0279 -6.5873 -2.9784 -6.0834 -1.1647 5.7971 -13.9788 9.4756 -38.4107 -20.6911 78.5869 1.1518 29.3495 -6.7665 0.6714 -6.3267 0.3957 -0.5504 4.0409 -3.7096 
0.0000 93.1000 0.0000 58.3405 -51.1031 -25.7314 -71.0936 0.1111 87.9683 84.4550 70.4327 -1.1630 1.9352 18.8640 5.1451 -131.6731 27.7501 164.3831 -160.6835 69.9557 -175.3846 -0.4751 -15.2330 -22.0687 -68.8685 40.6001 -140.4976 2.2762 -1.0728 -104.4897 0.1654 0.5406 -0.4267 -1.0782 4.8977 27.3254 -123.0025 -31.7809 100.8167 7.8305 5.8474 123.5782 -0.2552 0.7914 -0.6994 -54.5624 11.3245 98.7195 -2.6609 34.9328 -6.5821 -1.6806 -8.0763 -1.2885 5.3130 -14.4405 9.3679 -40.2638 -21.7996 79.4365 0.9452 27.2663 -6.9140 0.2723 -6.4888 0.3772 -0.4144 7.6203 -2.5819 
0.0000 93.1000 0.0000 59.2586 -50.6810 -24.7057 -71.1038 0.0597 87.9739 85.0243 70.8162 -1.6876 2.4117 19.3398 5.1919 -131.9536 28.3870 163.4306 -162.5487 70.1371 -170.2091 -0.1440 -14.8727 -22.1193 -67.9146 40.6378 -140.2683 4.1780 -2.0363 -104.7485 0.2478 0.2559 -0.3385 -1.0685 5.2360 28.0563 -124.1704 -31.5557 98.6380 6.9012 5.2743 123.9692 -0.0966 0.5446 -0.3222 -53.0806 10.8017 98.6311 -3.0108 38.3798 -8.9497 -0.8944 -9.0490 -1.2944 6.1218 -15.4843 13.5094 -40.2349 -22.6688 79.7713 -0.1012 26.7549 -5.6835 -2.2065 -6.1592 0.4843 0.0303 9.0673 -4.3750 
0.0000 93.1000 0.0000 59.2446 -50.5850 -24.3663 -71.1043 0.1183 87.9561 86.4759 70.9943 -3.0382 2.8232 19.2997 4.1501 -131.8646 28.0419 163.2040 -164.2165 69.2805 -169.3539 -0.4339 -14.8919 -21.9152 -67.0636 41.4687 -139.6162 4.3701 -2.2484 -105.0720 0.1864 0.5704 -0.4844 -1.2968 5.3111 30.0958 -125.1864 -31.4526 96.2700 8.2723 4.6258 125.1684 -0.3497 0.8708 -0.3622 -51.9341 10.9822 98.8251 -3.0431 39.9771 -8.1703 -0.0226 -10.2067 -1.8239 6.1725 -15.3368 12.9173 -39.2140 -22.0771 79.9512 0.0329 26.8182 -5.1535 -4.7408 -4.0515 0.8520 -1.0308 8.6200 -4.9413 
0.0000 93.1000 0.0000 59.1246 -51.5379 -24.9680 -71.1137 0.0796 87.9596 89.5001 71.5287 -4.2669 1.9630 20.2063 3.5771 -132.0262 27.2942 163.5732 -166.3925 69.1638 -166.1061 -0.2705 -14.2730 -21.1402 -66.6396 41.7634 -138.2936 6.2932 -2.6169 -105.8979 -0.0516 0.3076 -0.4471 -1.5696 5.6036 32.9937 -124.9605 -29.7737 96.4094 6.8572 4.7360 126.0322 -0.2394 0.6059 -0.2231 -50.9839 10.0779 98.7123 -2.1957 41.4918 -8.5099 0.7338 -11.8474 -1.7896 5.8381 -14.9981 14.1556 -37.6798 -21.7287 80.0744 -0.5166 26.9107 -2.6655 -8.3278 -1.5562 1.1266 -0.2077 5.7954 -4.3873 
0.0000 93.1000 0.0000 58.2482 -52.8548 -24.8023 -71.1043 0.1397 87.9395 92.6180 71.3259 -7.6976 1.3792 20.0905 3.8739 -131.2884 27.3198 164.0638 -167.9013 68.8430 -164.5099 -0.6403 -14.6248 -22.0572 -67.1694 42.7835 -137.0060 6.3553 -1.9076 -105.9099 0.1228 0.6233 -0.5677 -1.6781 4.9345 33.5962 -124.3235 -29.5735 95.7981 6.8475 5.3073 126.2405 -0.5186 0.9116 -0.3120 -49.9188 10.2141 98.7942 -3.5340 43.8690 -6.7183 1.0377 -13.9002 -2.3319 5.0448 -14.1391 14.4428 -36.2077 -21.2539 80.7909 -0.8462 30.1028 -1.2156 -8.9221 0.3828 1.2763 0.2348 2.5908 -5.7730 
0.0000 93.1000 0.0000 58.1628 -53.7324 -25.6345 -71.0845 0.0812 87.9444 95.2223 71.0374 -10.7855 0.7301 20.0440 3.3606 -131.7903 26.8054 164.6899 -168.7237 68.1964 -164.5756 -0.4033 -14.7856 -22.8924 -67.1424 42.7369 -135.6680 6.3686 -2.2010 -105.8024 0.0185 0.4233 -0.2471 -1.6878 5.0220 33.4027 -124.1942 -30.3521 93.6898 8.0556 6.2044 125.9979 -0.2754 0.6301 -0.0167 -49.6635 11.0176 98.7672 -3.6566 44.4460 -6.4831 1.1747 -14.7666 -2.2942 4.8363 -13.9401 14.5068 -34.1520 -21.0240 81.5464 0.5615 33.7941 4.3014 -4.8556 1.5258 0.6307 0.8530 -3.0297 -11.6885 
0.0000 93.1000 0.0000 58.0681 -54.7674 -24.8374 -71.0729 0.0062 87.9828 97.6319 71.1172 -13.8183 0.1324 20.2305 3.9973 -131.1773 26.5715 165.5166 -171.1172 68.1056 -161.3859 -0.0715 -14.6408 -23.2100 -67.2847 42.9288 -133.5548 6.9969 -2.7954 -105.9108 -0.0099 0.0806 -0.0178 -1.7330 5.2631 34.0342 -123.9598 -30.9967 92.3736 9.2901 7.1352 126.0081 0.2224 0.2008 -0.1855 -48.8252 10.0347 98.8895 -4.1696 45.6815 -5.5263 2.3896 -14.6408 -2.1376 4.9057 -14.8335 14.4554 -32.0751 -20.0934 80.9948 1.8415 37.6343 7.0797 -1.4477 2.1573 0.0336 0.9425 -8.1123 -11.0785 
